<?xml version="1.0" encoding="UTF-8"?>
<svg width="90px" height="82px" viewBox="0 0 90 82" version="1.1" xmlns="http://www.w3.org/2000/svg" xmlns:xlink="http://www.w3.org/1999/xlink">
    <!-- Generator: Sketch 59 (86127) - https://sketch.com -->
    <title>noun_Warning_2393046</title>
    <desc>Created with Sketch.</desc>
    <g id="Page-1" stroke="none" stroke-width="1" fill="none" fill-rule="evenodd">
        <g id="noun_Warning_2393046" fill="#806420" fill-rule="nonzero">
            <path d="M54.18439,5.92548 C52.2901366,2.64398547 48.7890143,0.622441789 45.00003,0.622441789 C41.2110457,0.622441789 37.7099234,2.64398547 35.81567,5.92548 L1.43829,65.46851 C-0.456254704,68.7499164 -0.456332831,72.7927754 1.43808505,76.074255 C3.33250293,79.3557347 6.83362634,81.37756 10.62268,81.37756 L79.37738,81.37756 C83.1664229,81.37756 86.6675267,79.3557048 88.56193,76.0742291 C90.4563332,72.7927533 90.4562493,68.7499071 88.56171,65.46851 L54.18439,5.92548 Z M83.36609,73.075 C82.5505246,74.507251 81.0255304,75.3879084 79.37738,75.3784861 L10.62268,75.3784861 C8.97701107,75.3784861 7.45652835,74.49979 6.6336787,73.0746076 C5.81082904,71.6494252 5.81054366,69.8935798 6.63293,68.46813 L41.01031,8.92513 C41.8332867,7.49977686 43.3541496,6.62173225 45.00003,6.62173225 C46.6459104,6.62173225 48.1667733,7.49977686 48.98975,8.92513 L83.36707,68.46813 C84.1992265,69.8911117 84.1988518,71.6523725 83.36609,73.075 Z" id="Shape"></path>
            <path d="M44.99982,21.69287 C42.58954,21.69287 40.65399,23.27441 40.71838,25.19116 L41.77362,56.574 C41.82037,57.96469 43.25104,59.07278 44.99982,59.07278 C46.7486,59.07278 48.17926,57.96466 48.226,56.574 L49.28124,25.19119 C49.3457,23.27441 47.4101,21.69287 44.99982,21.69287 Z" id="Path"></path>
            <path d="M45,63.34155 C43.7058857,63.34155 42.539196,64.1210985 42.0439572,65.316703 C41.5487183,66.5123075 41.8224591,67.8885098 42.7375347,68.8035883 C43.6526102,69.7186667 45.0288117,69.9924118 46.2244178,69.4971767 C47.4200238,69.0019415 48.19958,67.8352543 48.19958,66.54114 C48.19958,65.6925553 47.8624932,64.8787239 47.2624541,64.278683 C46.662415,63.678642 45.8485847,63.34155 45,63.34155 L45,63.34155 Z" id="Path"></path>
        </g>
    </g>
</svg>